<svg width="146.000000" height="12.000000" viewBox="0 0 146 12" fill="none" xmlns="http://www.w3.org/2000/svg" xmlns:xlink="http://www.w3.org/1999/xlink">
	<desc>
			Created with Pixso.
	</desc>
	<defs/>
	<path id="Green.Harvest" d="M6.3 12C2.51 12 0 9.64 0 5.98C0 2.39 2.47 0 6.21 0C9.35 0 11.56 1.64 11.88 4.12L9.28 4.12C9.02 2.7 7.82 1.9 6.21 1.9C3.94 1.9 2.6 3.53 2.6 5.98C2.6 8.67 4.11 10.09 6.3 10.09C8.2 10.09 9.42 9.13 9.55 7.69L9.55 7.53L6.04 7.53L6.04 5.74L11.97 5.74L11.97 7.21C11.86 10.08 9.6 12 6.3 12ZM130.31 12C126.97 12 124.96 10.38 124.96 7.98L127.83 7.98C127.83 8 127.83 8.03 127.83 8.05C127.83 9.36 128.82 10.09 130.31 10.09C131.9 10.09 132.66 9.53 132.66 8.7C132.66 7.87 132.01 7.52 129.71 6.95C127.61 6.44 125.32 5.84 125.32 3.43C125.32 1.53 127.18 0 130.13 0C133.16 0 135.1 1.52 135.1 3.66L132.32 3.66C132.3 2.52 131.44 1.9 130.13 1.9C128.85 1.9 128.01 2.47 128.01 3.24C128.01 4.15 128.71 4.44 130.54 4.91C133.25 5.58 135.44 5.85 135.44 8.46C135.44 10.56 133.3 12 130.31 12ZM13.54 11.84L13.54 0.15L19.84 0.15C23.05 0.15 24.33 1.55 24.33 3.56C24.33 5.37 22.89 6.23 21.22 6.44L21.22 6.49C22.3 6.73 22.78 7.26 23.23 8.3C23.81 9.61 23.9 11.18 24.63 11.74L24.63 11.84L21.76 11.84C21.15 11.29 21.01 9.58 20.68 8.54C20.36 7.47 19.66 7.34 18.35 7.34L16.05 7.34L16.05 11.84L13.54 11.84ZM26 11.84L26 0.15L34.95 0.15L34.95 2.01L28.51 2.01L28.51 4.8L34.33 4.8L34.33 6.65L28.51 6.65L28.51 9.93L35.04 9.93L35.04 11.84L26 11.84ZM36.79 11.84L36.79 0.15L45.75 0.15L45.75 2.01L39.3 2.01L39.3 4.8L45.12 4.8L45.12 6.65L39.3 6.65L39.3 9.93L45.84 9.93L45.84 11.84L36.79 11.84ZM47.58 11.84L47.58 0.15L50.63 0.15L54.98 6.6C56.31 8.56 56.47 9.19 56.47 9.19L56.52 9.19L56.49 0.15L59 0.15L59 11.84L55.93 11.84L51.42 5.19C50.4 3.69 50.13 2.78 50.13 2.78L50.09 2.78L50.09 11.84L47.58 11.84ZM65.4 11.84L65.4 0.15L67.91 0.15L67.91 4.83L73.92 4.83L73.92 0.15L76.44 0.15L76.44 11.84L73.92 11.84L73.92 6.68L67.91 6.68L67.91 11.84L65.4 11.84ZM77.51 11.84L82.54 0.15L85.27 0.15L90.36 11.84L87.67 11.84L86.61 9.15L81.17 9.15L80.11 11.84L77.51 11.84ZM91.44 11.84L91.44 0.15L97.74 0.15C100.95 0.15 102.22 1.55 102.22 3.56C102.22 5.37 100.79 6.23 99.12 6.44L99.12 6.49C100.2 6.73 100.68 7.26 101.13 8.3C101.7 9.61 101.79 11.18 102.53 11.74L102.53 11.84L99.66 11.84C99.05 11.29 98.9 9.58 98.58 8.54C98.26 7.47 97.56 7.34 96.25 7.34L93.95 7.34L93.95 11.84L91.44 11.84ZM106.56 11.84L101.75 0.15L104.44 0.15C104.44 0.15 107.04 6.7 107.31 7.5C107.74 8.78 107.94 9.43 107.94 9.43L107.98 9.43C107.98 9.43 107.98 9.43 107.98 9.43C107.98 9.38 108.17 8.73 108.6 7.5C108.89 6.7 111.39 0.15 111.39 0.15L113.99 0.15L109.36 11.84L106.56 11.84ZM115.02 11.84L115.02 0.15L123.98 0.15L123.98 2.01L117.53 2.01L117.53 4.8L123.35 4.8L123.35 6.65L117.53 6.65L117.53 9.93L124.07 9.93L124.07 11.84L115.02 11.84ZM139.53 11.84L139.53 2.06L135.57 2.06L135.57 0.15L146 0.15L146 2.06L142.05 2.06L142.05 11.84L139.53 11.84ZM81.89 7.29L85.9 7.29L84.73 4.41C83.92 2.28 83.9 1.9 83.9 1.9L83.87 1.9C83.87 1.9 83.87 2.28 83.06 4.41L81.89 7.29ZM16.05 5.48L19.57 5.48C21.04 5.48 21.72 4.71 21.72 3.72C21.72 2.63 20.88 2.01 19.57 2.01L16.05 2.01L16.05 5.48ZM93.95 5.48L97.47 5.48C98.94 5.48 99.62 4.71 99.62 3.72C99.62 2.63 98.78 2.01 97.47 2.01L93.95 2.01L93.95 5.48ZM60.89 11.84L60.89 9.47L63.51 9.47L63.51 11.84L60.89 11.84Z" fill="#FBFBFB" fill-opacity="1.000000" fill-rule="evenodd"/>
</svg>
